<?xml version="1.0" encoding="utf-8"?>
<svg version="1.1" id="Layer_1" xmlns="http://www.w3.org/2000/svg" xmlns:xlink="http://www.w3.org/1999/xlink" x="0px" y="0px"
	 viewBox="0 0 24 24" style="enable-background:new 0 0 24 24;" xml:space="preserve">
<style type="text/css">
	.st0{fill:#FFFFFF;}
</style>
<path class="st0" d="M12.4,9.9l6.6,2.4v9.7c0,0.4-0.3,0.7-0.7,0.7h-2.8c-0.4,0-0.7-0.3-0.7-0.7v-5H7.7v5c0,0.4-0.3,0.7-0.7,0.7H4.2
	c-0.4,0-0.7-0.3-0.7-0.7v-9.5c-1.6-0.6-2.8-2.1-2.8-4C0.6,7.7,1.3,7,2.1,7s1.4,0.6,1.4,1.4s0.6,1.4,1.4,1.4H12.4z M23.4,4.9v1.4
	c0,1.6-1.3,2.8-2.8,2.8h-1.4v1.6l-5.7-2V2.1c0-0.6,0.8-0.9,1.2-0.5l1.2,1.2h2.4c0.5,0,1.1,0.4,1.3,0.8l0.3,0.6h2.8
	C23,4.2,23.4,4.5,23.4,4.9z M18.4,4.9c0-0.4-0.3-0.7-0.7-0.7S17,4.5,17,4.9c0,0.4,0.3,0.7,0.7,0.7S18.4,5.3,18.4,4.9z"/>
</svg>
